<svg width="393" height="393" xmlns="http://www.w3.org/2000/svg"><defs><linearGradient x1="50%" y1="100%" x2="50%" y2="0%" id="a"><stop stop-color="#017AFF" offset="0%"/><stop stop-color="#52A5FF" offset="100%"/></linearGradient></defs><g fill="none" fill-rule="evenodd"><rect fill="url(#a)" width="393" height="393" rx="46"/><path d="M194.051 272.222h-29.297v-60.937h-57.129v60.937H78.328V130.035h29.297v57.617h57.13v-57.617h29.296v142.187zm120.02 0H216.61v-19.336l45.996-49.023c6.315-6.901 10.986-12.923 14.013-18.066 3.028-5.144 4.541-10.026 4.541-14.649 0-6.315-1.595-11.28-4.785-14.892-3.19-3.614-7.747-5.42-13.672-5.42-6.38 0-11.409 2.197-15.087 6.591-3.679 4.395-5.518 10.173-5.518 17.334h-28.32c0-8.659 2.067-16.569 6.2-23.73 4.135-7.162 9.978-12.777 17.53-16.846 7.552-4.069 16.113-6.103 25.684-6.103 14.648 0 26.025 3.515 34.13 10.547 8.106 7.03 12.159 16.96 12.159 29.785 0 7.031-1.823 14.192-5.469 21.484-3.646 7.292-9.896 15.788-18.75 25.488l-32.324 34.082h61.133v22.754z" fill="#FFF"/><rect stroke="#FFF" stroke-width="12" opacity=".95" x="32.5" y="32.5" width="328" height="328" rx="29"/></g></svg>