<?xml version="1.0" encoding="UTF-8"?>
<svg width="393px" height="393px" viewBox="0 0 393 393" version="1.1" xmlns="http://www.w3.org/2000/svg" xmlns:xlink="http://www.w3.org/1999/xlink">
    <!-- Generator: Sketch 52.1 (67048) - http://www.bohemiancoding.com/sketch -->
    <title>Rectangle</title>
    <desc>Created with Sketch.</desc>
    <defs>
        <linearGradient x1="50%" y1="100%" x2="50%" y2="0%" id="linearGradient-1">
            <stop stop-color="#017AFF" offset="0%"></stop>
            <stop stop-color="#52A5FF" offset="100%"></stop>
        </linearGradient>
    </defs>
    <g id="Page-1" stroke="none" stroke-width="1" fill="none" fill-rule="evenodd">
        <g id="Artboard" transform="translate(-113.000000, -133.000000)">
            <rect id="Rectangle" fill="url(#linearGradient-1)" x="113" y="133" width="393" height="393" rx="46"></rect>
            <path d="M311.555322,404.5 L284.485009,404.5 L284.485009,334.998047 L214.553369,334.998047 L214.553369,404.5 L187.375634,404.5 L187.375634,248.09375 L214.553369,248.09375 L214.553369,313.191406 L284.485009,313.191406 L284.485009,248.09375 L311.555322,248.09375 L311.555322,404.5 Z M393.236572,406.648438 C376.69352,406.648438 363.283824,401.438529 353.00708,391.018555 C342.730335,380.598581 337.59204,366.723394 337.59204,349.392578 L337.59204,346.169922 C337.59204,334.568301 339.829974,324.202194 344.305908,315.071289 C348.781842,305.940384 355.065958,298.832708 363.158447,293.748047 C371.250935,288.663386 380.274282,286.121094 390.228759,286.121094 C406.055661,286.121094 418.283729,291.169871 426.91333,301.267578 C435.54293,311.365285 439.857665,325.652251 439.857665,344.128906 L439.857665,354.65625 L363.9104,354.65625 C364.698164,364.252652 367.902885,371.843722 373.524658,377.429688 C379.146431,383.015653 386.2183,385.808594 394.740478,385.808594 C406.700173,385.808594 416.439659,380.974658 423.959228,371.306641 L438.031494,384.734375 C433.376522,391.681024 427.164019,397.069968 419.393798,400.901367 C411.623577,404.732767 402.904589,406.648438 393.236572,406.648438 Z M390.121337,307.068359 C382.959843,307.068359 377.177023,309.574845 372.772705,314.587891 C368.368386,319.600937 365.557541,326.583289 364.340087,335.535156 L414.076415,335.535156 L414.076415,333.601562 C413.503496,324.86454 411.176045,318.25816 407.093994,313.782227 C403.011942,309.306293 397.354446,307.068359 390.121337,307.068359 Z" id="He" fill="#FFFFFF"></path>
            <rect id="Rectangle" stroke="#FFFFFF" stroke-width="12" x="145.5" y="165.5" width="328" height="328" rx="29"></rect>
        </g>
    </g>
</svg>
